<svg width="388" height="69" viewBox="0 0 388 69" fill="none" xmlns="http://www.w3.org/2000/svg">
<path d="M150.61 21.2876C152.722 24.3767 153.779 27.8575 153.779 31.7302L153.522 57.0918H144.786V31.7302C144.786 28.1187 143.415 25.2656 140.673 23.1724C137.989 21.0791 134.764 20.0314 130.994 20.0314C127.109 20.0314 123.828 21.0791 121.144 23.1724C118.403 25.2664 117.032 28.1187 117.032 31.7302V57.0918H108.295V31.7302C108.295 27.8575 109.323 24.4019 111.378 21.3656C113.49 18.3307 116.317 16.0007 119.859 14.3772C123.399 12.7551 127.109 11.9434 130.994 11.9434C134.991 11.9434 138.716 12.7681 142.172 14.4169C145.626 16.0664 148.439 18.3566 150.61 21.2876Z" fill="#0BA7E3"/>
<path d="M174.251 15.1623H163.716V5.50488H174.251V15.1623ZM174.251 57.0912H163.716V23.2497H174.251V57.0912Z" fill="#0BA7E3"/>
<path d="M195.406 15.1623H184.871V5.50488H195.406V15.1623ZM195.406 57.0912H184.871V23.2497H195.406V57.0912Z" fill="#0BA7E3"/>
<path d="M230.524 42.802V34.7146H253.566C252.765 40.5247 250.996 45.0533 248.256 48.2981C245.971 51.0206 243.116 53.1666 239.69 54.7367C236.378 56.3068 232.752 57.0926 228.812 57.0926C224.358 57.0926 220.246 56.0716 216.478 54.0303C212.709 51.989 209.711 49.2153 207.483 45.7077C205.256 42.3055 204.142 38.5628 204.142 34.4794C204.142 30.3961 205.256 26.615 207.483 23.1335C209.71 19.6526 212.737 16.8912 216.562 14.8499C220.274 12.8612 224.357 11.8662 228.811 11.8662C232.636 11.8662 236.233 12.6513 239.603 14.2221C243.03 15.741 245.913 17.861 248.255 20.582C250.31 23.0945 251.767 25.817 252.624 28.748L243.286 28.6701C242.143 26.1576 240.316 24.1163 237.805 22.5454C235.12 20.818 232.123 19.9543 228.811 19.9543C226.012 19.9543 223.385 20.6094 220.93 21.9169C218.475 23.2258 216.561 24.9793 215.192 27.1779C213.706 29.3245 212.965 31.7591 212.965 34.4801C212.965 37.0453 213.678 39.4402 215.106 41.6648C216.533 43.8901 218.475 45.6565 220.93 46.964C223.214 48.3256 225.841 49.0053 228.811 49.0053C232.123 49.0053 235.15 48.1163 237.89 46.3355C238.748 45.8131 239.603 45.1059 240.461 44.2155L241.917 42.8027H230.524V42.802Z" fill="#0BA7E3"/>
<path d="M310.613 11.9441C313.183 11.9441 315.509 12.258 317.594 12.8865C319.677 13.5142 321.391 14.2877 322.733 15.2027C324.074 16.1191 325.23 17.2317 326.202 18.5399C327.172 19.8496 327.901 21.0921 328.386 22.2697C328.871 23.4473 329.256 24.731 329.543 26.1171C329.828 27.5047 329.999 28.5906 330.056 29.3757C330.113 30.1608 330.142 30.9458 330.142 31.7309V57.0925H321.405V31.7302C321.405 30.7878 321.348 29.8988 321.234 29.0604C321.119 28.2241 320.834 27.229 320.377 26.0767C319.919 24.9265 319.306 23.9308 318.536 23.093C317.765 22.256 316.651 21.5366 315.195 20.9341C313.739 20.333 312.039 20.0307 310.098 20.0307C308.385 20.0307 306.9 20.3323 305.644 20.9341C304.387 21.5366 303.431 22.2567 302.775 23.093C302.116 23.9308 301.588 24.9265 301.189 26.0767C300.789 27.229 300.548 28.2241 300.462 29.0604C300.376 29.8988 300.334 30.7878 300.334 31.7302V57.0918H291.511V31.7302C291.511 30.7878 291.454 29.8988 291.339 29.0604C291.225 28.2241 290.983 27.229 290.612 26.0767C290.241 24.9265 289.726 23.9308 289.07 23.093C288.413 22.256 287.456 21.5366 286.201 20.9341C284.944 20.333 283.459 20.0307 281.746 20.0307C279.804 20.0307 278.091 20.3323 276.607 20.9341C275.121 21.5366 274.008 22.2567 273.266 23.093C272.523 23.9308 271.923 24.9265 271.467 26.0767C271.009 27.229 270.724 28.2241 270.61 29.0604C270.495 29.8988 270.439 30.7878 270.439 31.7302V57.0918H261.703V31.7302C261.703 30.9451 261.73 30.16 261.788 29.375C261.844 28.5892 262.015 27.504 262.302 26.1164C262.587 24.7303 262.972 23.4466 263.458 22.269C263.943 21.0914 264.67 19.8488 265.642 18.5392C266.612 17.231 267.769 16.1191 269.111 15.202C270.453 14.287 272.165 13.5135 274.251 12.8857C276.334 12.258 278.662 11.9434 281.231 11.9434C283.857 11.9434 286.642 12.6108 289.583 13.9457C292.524 15.2806 294.622 17.1783 295.879 19.6382C295.993 19.4296 296.164 19.1547 296.393 18.8134C296.62 18.4735 297.149 17.8588 297.978 16.9683C298.804 16.0787 299.719 15.2936 300.718 14.6124C301.716 13.9327 303.101 13.3165 304.872 12.7674C306.643 12.219 308.557 11.9441 310.613 11.9441Z" fill="#0BA7E3"/>
<path d="M384.362 22.7003C386.589 26.1033 387.703 29.7674 387.703 33.6934L387.618 56.6992H378.88V34.4006C378.88 31.7834 378.137 29.3756 376.654 27.177C375.226 24.9271 373.314 23.1463 370.914 21.8381C368.517 20.5299 365.889 19.8747 363.034 19.8747C360.235 19.8747 357.607 20.5299 355.153 21.8381C352.697 23.147 350.784 24.8997 349.414 27.0983C347.929 29.2457 347.188 31.6795 347.188 34.4006C347.188 36.9657 347.901 39.3606 349.329 41.5852C350.756 43.8105 352.669 45.5776 355.069 46.8844C357.409 48.194 360.065 48.8485 363.035 48.8485C365.432 48.8485 367.774 48.3254 370.059 47.2777V55.9935C367.716 56.6746 365.375 57.0145 363.035 57.0145C358.58 57.0145 354.469 55.9935 350.701 53.9522C346.932 51.9108 343.933 49.1371 341.706 45.6296C339.479 42.2274 338.365 38.4846 338.365 34.402C338.365 30.3187 339.479 26.5376 341.706 23.0554C343.933 19.5745 346.959 16.8138 350.785 14.7718C354.496 12.7831 358.58 11.7881 363.034 11.7881C367.373 11.7881 371.442 12.7694 375.24 14.7321C379.037 16.694 382.079 19.3515 384.362 22.7003Z" fill="#0BA7E3"/>
<path d="M91.6837 11.9517V31.968L56.8832 66.3146C55.4584 65.0663 54.4823 63.3995 54.2304 61.5306C54.199 61.3286 54.1832 61.1266 54.1754 60.9245C54.0809 58.9113 53.1599 56.9992 51.4518 55.7292L41.7854 48.5713C40.03 47.2725 37.7551 46.8395 35.5274 47.1714C34.6852 47.2941 33.7957 47.3085 32.8904 47.1859C28.9861 46.6735 25.9004 43.6863 25.5462 40.0929C25.0345 35.0058 29.7811 30.8063 35.37 31.5062C38.7469 31.9319 41.5807 34.2265 42.4781 37.2427C42.6513 37.8416 42.7536 38.4333 42.7772 39.0033C42.8795 41.0237 43.7926 42.9286 45.5087 44.1986L55.1278 51.3277L55.5057 51.6091C61.984 56.4003 71.1624 53.5068 73.7285 46.9983C73.7285 46.9983 73.7285 46.9983 73.7285 46.991C74.1693 45.8726 74.4133 44.6459 74.4133 43.3327L74.4212 43.3255C74.4055 43.21 74.4055 43.0946 74.4055 42.9791V11.9517C74.4055 7.57903 78.2705 4.03613 83.0407 4.03613C87.8188 4.03613 91.6837 7.57903 91.6837 11.9517Z" fill="url(#paint0_linear_1515_17702)"/>
<path d="M91.6836 31.9668V42.9779C91.6836 45.1643 90.7154 47.1414 89.1568 48.5773C87.5903 50.0132 85.4335 50.9007 83.0405 50.9007C82.8044 50.9007 82.5682 50.8935 82.34 50.8719C80.2933 50.7203 78.2861 51.4636 76.7668 52.7263L73.9645 55.0498C72.28 56.4496 71.4377 58.4628 71.4456 60.5481V60.577C71.4456 64.9641 67.5649 68.5142 62.7789 68.4998C60.5355 68.4925 58.4416 67.6555 56.8831 66.3134L91.6836 31.9668Z" fill="#0BA7E3"/>
<path d="M0.297119 57.0493V26.0219C0.297119 23.8355 1.26534 21.8584 2.82392 20.4225C4.39038 18.9866 6.54721 18.0991 8.94019 18.0991C9.17634 18.0991 9.41249 18.1063 9.64077 18.1279C11.6874 18.2795 13.6947 17.5362 15.2139 16.2735L18.0162 13.9501C19.7007 12.5502 20.543 10.537 20.5351 8.45171V8.42284C20.5351 4.03571 24.4158 0.485612 29.2018 0.500044C33.4997 0.514475 37.2309 3.55949 37.7504 7.47039C37.7819 7.67243 37.7976 7.87446 37.8055 8.0765C37.9 10.0897 38.821 12.0018 40.5291 13.2718L50.1955 20.4297C51.9509 21.7286 54.2258 22.1615 56.4534 21.8296C57.2957 21.7069 58.1852 21.6925 59.0905 21.8152C62.9948 22.3275 66.0805 25.3147 66.4347 28.9082C66.9463 33.9952 62.1997 38.1947 56.6109 37.4948C53.2339 37.0691 50.4001 34.7745 49.5028 31.7584C49.3296 31.1595 49.2273 30.5678 49.2037 29.9977C49.1013 27.9773 48.1882 26.0724 46.4722 24.8024L36.8531 17.6733L36.4752 17.3919C29.9968 12.6007 20.8185 15.4942 18.2523 22.0027C18.2523 22.0027 18.2523 22.0028 18.2523 22.01C17.8115 23.1284 17.5675 24.3551 17.5675 25.6683L17.5596 25.6755C17.5754 25.791 17.5754 25.9064 17.5754 26.0219V57.0493C17.5754 61.422 13.7104 64.9649 8.94019 64.9649C4.1621 64.9649 0.297119 61.422 0.297119 57.0493Z" fill="#0BA7E3"/>
<defs>
<linearGradient id="paint0_linear_1515_17702" x1="58.8296" y1="58.3479" x2="58.4989" y2="3.26786" gradientUnits="userSpaceOnUse">
<stop stop-color="#FDF181"/>
<stop offset="0.3367" stop-color="#996E20"/>
<stop offset="0.3897" stop-color="#9F7627"/>
<stop offset="0.4724" stop-color="#AE8C3B"/>
<stop offset="0.5746" stop-color="#C8B15C"/>
<stop offset="0.6912" stop-color="#EBE389"/>
<stop offset="0.7449" stop-color="#FDFCA0"/>
<stop offset="0.7928" stop-color="#FBF99D"/>
<stop offset="0.8347" stop-color="#F6EE95"/>
<stop offset="0.8743" stop-color="#ECDC86"/>
<stop offset="0.9125" stop-color="#DFC372"/>
<stop offset="0.9498" stop-color="#CEA257"/>
<stop offset="0.9858" stop-color="#B97B37"/>
<stop offset="1" stop-color="#B06929"/>
</linearGradient>
</defs>
</svg>
